<!DOCTYPE svg PUBLIC "-//W3C//DTD SVG 1.1//EN" "https://www.w3.org/Graphics/SVG/1.1/DTD/svg11.dtd">
<svg xmlns="http://www.w3.org/2000/svg" id="sfn-svg" class="sfn-workflow-graph" width="735" height="1292">
    
    
<g transform="translate(12,19.191667556762695)"><g class="nodes"><g class="node-container" transform="translate(248.02499771118164,19)"><g class="node anchor"><circle class="shape" x="-16.191667556762695" y="-9" r="26.191667556762695"/><text class="label"><tspan xml:space="preserve" text-anchor="middle" alignment-baseline="central">Start</tspan></text></g></g><g class="node-container" transform="translate(400.14166259765625,1238)"><g class="node anchor"><circle class="shape" x="-12.175000190734863" y="-9" r="22.175000190734863"/><text class="label"><tspan xml:space="preserve" text-anchor="middle" alignment-baseline="central">End</tspan></text></g></g><g class="node-container" transform="translate(248.02499771118164,82)"><g class="node state Task NotYetStarted"><rect class="shape" rx="5" ry="5" x="-45.29166793823242" y="-19" width="90.58333587646484" height="38"/><text class="label"><tspan xml:space="preserve" text-anchor="middle" alignment-baseline="central">Build index</tspan></text></g></g><g class="node-container" transform="translate(248.02499771118164,145)"><g class="node state Pass NotYetStarted"><rect class="shape" rx="5" ry="5" x="-103.1500015258789" y="-19" width="206.3000030517578" height="38"/><text class="label"><tspan xml:space="preserve" text-anchor="middle" alignment-baseline="central">Add empty LastEvaluatedKey</tspan></text></g></g><g class="node-container" transform="translate(248.02499771118164,208)"><g class="node state Task NotYetStarted"><rect class="shape" rx="5" ry="5" x="-25.024999618530273" y="-19" width="50.04999923706055" height="38"/><text class="label"><tspan xml:space="preserve" text-anchor="middle" alignment-baseline="central">Scan</tspan></text></g></g><g class="node-container" transform="translate(385.14166259765625,374)"><g class="node state Map NotYetStarted Container" transform="translate(-103.23333740234375,-122)"><rect class="shape" rx="5" ry="5" x="-10" y="-10" width="204.4666748046875" height="242"/><rect class="shape" rx="5" ry="5" x="-5" y="-5" width="205.4666748046875" height="243"/><rect class="shape" rx="5" ry="5" x="0" y="0" width="206.4666748046875" height="244"/><g class="branches" transform="translate(20,20)"><g class="branch" transform="translate(0,0)"><g class="nodes"><g class="node-container" transform="translate(85.73333358764648,19)"><g class="node state Task NotYetStarted"><rect class="shape" rx="5" ry="5" x="-47.75833511352539" y="-19" width="95.51667022705078" height="38"/><text class="label"><tspan xml:space="preserve" text-anchor="middle" alignment-baseline="central">Get files list</tspan></text></g></g><g class="node-container" transform="translate(85.73333358764648,102)"><g class="node state Map NotYetStarted Container" transform="translate(-78.23333358764648,-39)"><rect class="shape" rx="5" ry="5" x="-10" y="-10" width="154.46666717529297" height="76"/><rect class="shape" rx="5" ry="5" x="-5" y="-5" width="155.46666717529297" height="77"/><rect class="shape" rx="5" ry="5" x="0" y="0" width="156.46666717529297" height="78"/><g class="branches" transform="translate(20,20)"><g class="branch" transform="translate(0,0)"><g class="nodes"><g class="node-container" transform="translate(58.233333587646484,19)"><g class="node state Task NotYetStarted"><rect class="shape" rx="5" ry="5" x="-58.233333587646484" y="-19" width="116.46666717529297" height="38"/><text class="label"><tspan xml:space="preserve" text-anchor="middle" alignment-baseline="central">Download data</tspan></text></g></g></g><g class="edges"/></g></g><path class="path" style="fill: none;" marker-end="url(#arrowhead31)" d="M78.23333358764648,0L78.23333358764648,1.6666666666666665C78.23333358764648,3.333333333333333,78.23333358764648,6.666666666666666,78.23333358764648,8.333333333333332C78.23333358764648,10,78.23333358764648,10,78.23333358764648,11.666666666666664C78.23333358764648,13.333333333333332,78.23333358764648,16.666666666666664,78.23333358764648,18.333333333333332L78.23333358764648,20"/></g></g><g class="node-container" transform="translate(85.73333358764648,185)"><g class="node state Task NotYetStarted"><rect class="shape" rx="5" ry="5" x="-44.93333435058594" y="-19" width="89.86666870117188" height="38"/><text class="label"><tspan xml:space="preserve" text-anchor="middle" alignment-baseline="central">Mark index</tspan></text></g></g></g><g class="edges"><g class="edge"><path class="path" style="fill: none;" marker-end="url(#arrowhead32)" d="M85.73333358764648,38L85.73333358764648,40.08333333333333C85.73333358764648,42.166666666666664,85.73333358764648,46.33333333333333,85.73333358764648,50.5C85.73333358764648,54.666666666666664,85.73333358764648,58.83333333333333,85.73333358764648,60.916666666666664L85.73333358764648,63"/><defs><marker id="arrowhead32" viewBox="0 0 10 10" refX="9" refY="5" markerUnits="strokeWidth" markerWidth="8" markerHeight="6" orient="auto"><path d="M 0 0 L 10 5 L 0 10 z"/></marker></defs></g><g class="edge"><path class="path" style="fill: none;" marker-end="url(#arrowhead33)" d="M85.73333358764648,141L85.73333358764648,143.08333333333334C85.73333358764648,145.16666666666666,85.73333358764648,149.33333333333331,85.73333358764648,153.5C85.73333358764648,157.66666666666666,85.73333358764648,161.83333333333331,85.73333358764648,163.91666666666666L85.73333358764648,166"/><defs><marker id="arrowhead33" viewBox="0 0 10 10" refX="9" refY="5" markerUnits="strokeWidth" markerWidth="8" markerHeight="6" orient="auto"><path d="M 0 0 L 10 5 L 0 10 z"/></marker></defs></g></g></g></g><path class="path" style="fill: none;" marker-end="url(#arrowhead34)" d="M103.23333740234375,0L103.23333740234374,1.6666666666666665C103.23333740234375,3.333333333333333,103.23333740234375,6.666666666666666,103.65000343322752,8.333333333333332C104.06666946411133,10,104.9000015258789,10,105.31666755676268,11.666666666666664C105.73333358764648,13.333333333333332,105.73333358764648,16.666666666666664,105.73333358764647,18.333333333333332L105.73333358764648,20"/></g></g><g class="node-container" transform="translate(385.14166259765625,540)"><g class="node state Choice NotYetStarted"><rect class="shape" rx="5" ry="5" x="-58.46666717529297" y="-19" width="116.93333435058594" height="38"/><text class="label"><tspan xml:space="preserve" text-anchor="middle" alignment-baseline="central">Check for more</tspan></text></g></g><g class="node-container" transform="translate(95.90833282470703,684.5)"><g class="node state Pass NotYetStarted"><rect class="shape" rx="5" ry="5" x="-95.90833282470703" y="-19" width="191.81666564941406" height="38"/><text class="label"><tspan xml:space="preserve" text-anchor="middle" alignment-baseline="central">Add new LastEvaluatedKey</tspan></text></g></g><g class="node-container" transform="translate(400.14166259765625,684.5)"><g class="node state Map NotYetStarted Container" transform="translate(-160.8249969482422,-100.5)"><rect class="shape" rx="5" ry="5" x="-10" y="-10" width="319.6499938964844" height="199"/><rect class="shape" rx="5" ry="5" x="-5" y="-5" width="320.6499938964844" height="200"/><rect class="shape" rx="5" ry="5" x="0" y="0" width="321.6499938964844" height="201"/><g class="branches" transform="translate(20,20)"><g class="branch" transform="translate(0,0)"><g class="nodes"><g class="node-container" transform="translate(140.8249969482422,49)"><g class="node state Parallel NotYetStarted Container" transform="translate(-140.8249969482422,-49)"><rect class="shape" rx="19.6" ry="19.6" x="0" y="0" width="281.6499938964844" height="98"/><g class="branches" transform="translate(20,40)"><g class="branch" transform="translate(0,0)"><g class="nodes"><g class="node-container" transform="translate(49.70833206176758,19)"><g class="node state Task NotYetStarted"><rect class="shape" rx="5" ry="5" x="-49.70833206176758" y="-19" width="99.41666412353516" height="38"/><text class="label"><tspan xml:space="preserve" text-anchor="middle" alignment-baseline="central">Process data</tspan></text></g></g></g><g class="edges"/></g><g class="branch" transform="translate(119.41666412353516,0)"><g class="nodes"><g class="node-container" transform="translate(61.11666488647461,19)"><g class="node state Task NotYetStarted"><rect class="shape" rx="5" ry="5" x="-61.11666488647461" y="-19" width="122.23332977294922" height="38"/><text class="label"><tspan xml:space="preserve" text-anchor="middle" alignment-baseline="central">Process location</tspan></text></g></g></g><g class="edges"/></g></g><path class="path" style="fill: none;" marker-end="url(#arrowhead35)" d="M140.8249969482422,0L140.8249969482422,3.333333333333333C140.8249969482422,6.666666666666666,140.8249969482422,13.333333333333332,128.9722194671631,16.666666666666664C117.11944198608398,20,93.41388702392578,20,81.56110954284668,23.33333333333333C69.70833206176758,26.666666666666664,69.70833206176758,33.33333333333333,69.70833206176758,36.666666666666664L69.70833206176758,40"/><path class="path" style="fill: none;" marker-end="url(#arrowhead36)" d="M140.8249969482422,0L140.8249969482422,3.333333333333333C140.8249969482422,6.666666666666666,140.8249969482422,13.333333333333332,150.77638562520343,16.666666666666664C160.7277743021647,20,180.63055165608722,20,190.58194033304846,23.33333333333333C200.53332901000974,26.666666666666664,200.53332901000974,33.33333333333333,200.5333290100097,36.666666666666664L200.53332901000977,40"/></g></g><g class="node-container" transform="translate(140.8249969482422,142)"><g class="node state Task NotYetStarted"><rect class="shape" rx="5" ry="5" x="-41.24166679382324" y="-19" width="82.48333358764648" height="38"/><text class="label"><tspan xml:space="preserve" text-anchor="middle" alignment-baseline="central">MoveFiles</tspan></text></g></g></g><g class="edges"><g class="edge"><path class="path" style="fill: none;" marker-end="url(#arrowhead37)" d="M140.8249969482422,98L140.8249969482422,100.08333333333331C140.8249969482422,102.16666666666666,140.8249969482422,106.33333333333331,140.8249969482422,110.49999999999999C140.8249969482422,114.66666666666666,140.8249969482422,118.83333333333333,140.8249969482422,120.91666666666666L140.8249969482422,123"/><defs><marker id="arrowhead37" viewBox="0 0 10 10" refX="9" refY="5" markerUnits="strokeWidth" markerWidth="8" markerHeight="6" orient="auto"><path d="M 0 0 L 10 5 L 0 10 z"/></marker></defs></g></g></g></g><path class="path" style="fill: none;" marker-end="url(#arrowhead38)" d="M160.8249969482422,0L160.8249969482422,1.6666666666666665C160.8249969482422,3.333333333333333,160.8249969482422,6.666666666666666,160.8249969482422,8.333333333333332C160.8249969482422,10,160.8249969482422,10,160.8249969482422,11.666666666666664C160.8249969482422,13.333333333333332,160.8249969482422,16.666666666666664,160.8249969482422,18.333333333333332L160.8249969482422,20"/></g></g><g class="node-container" transform="translate(400.14166259765625,1175)"><g class="node state Succeed NotYetStarted"><rect class="shape" rx="5" ry="5" x="-34.016666412353516" y="-19" width="68.03333282470703" height="38"/><text class="label"><tspan xml:space="preserve" text-anchor="middle" alignment-baseline="central">Success</tspan></text></g></g><g class="node-container" transform="translate(400.14166259765625,884)"><g class="node state Parallel NotYetStarted Container" transform="translate(-310.04998779296875,-74)"><rect class="shape" rx="29.6" ry="29.6" x="0" y="0" width="620.0999755859375" height="148"/><g class="branches" transform="translate(20,40)"><g class="branch" transform="translate(0,0)"><g class="nodes"><g class="node-container" transform="translate(85.6500015258789,39)"><g class="node state Map NotYetStarted Container" transform="translate(-78.1500015258789,-39)"><rect class="shape" rx="5" ry="5" x="-10" y="-10" width="154.3000030517578" height="76"/><rect class="shape" rx="5" ry="5" x="-5" y="-5" width="155.3000030517578" height="77"/><rect class="shape" rx="5" ry="5" x="0" y="0" width="156.3000030517578" height="78"/><g class="branches" transform="translate(20,20)"><g class="branch" transform="translate(0,0)"><g class="nodes"><g class="node-container" transform="translate(58.150001525878906,19)"><g class="node state Task NotYetStarted"><rect class="shape" rx="5" ry="5" x="-58.150001525878906" y="-19" width="116.30000305175781" height="38"/><text class="label"><tspan xml:space="preserve" text-anchor="middle" alignment-baseline="central">Lambda Invoke</tspan></text></g></g></g><g class="edges"/></g></g><path class="path" style="fill: none;" marker-end="url(#arrowhead39)" d="M78.1500015258789,0L78.1500015258789,1.6666666666666665C78.1500015258789,3.333333333333333,78.1500015258789,6.666666666666666,78.1500015258789,8.333333333333332C78.1500015258789,10,78.1500015258789,10,78.1500015258789,11.666666666666664C78.1500015258789,13.333333333333332,78.1500015258789,16.666666666666664,78.1500015258789,18.333333333333332L78.1500015258789,20"/></g></g></g><g class="edges"/></g><g class="branch" transform="translate(186.3000030517578,0)"><g class="nodes"><g class="node-container" transform="translate(95.94999694824219,39)"><g class="node state Map NotYetStarted Container" transform="translate(-88.44999694824219,-39)"><rect class="shape" rx="5" ry="5" x="-10" y="-10" width="174.89999389648438" height="76"/><rect class="shape" rx="5" ry="5" x="-5" y="-5" width="175.89999389648438" height="77"/><rect class="shape" rx="5" ry="5" x="0" y="0" width="176.89999389648438" height="78"/><g class="branches" transform="translate(20,20)"><g class="branch" transform="translate(0,0)"><g class="nodes"><g class="node-container" transform="translate(68.45000076293945,19)"><g class="node state Task NotYetStarted"><rect class="shape" rx="5" ry="5" x="-68.45000076293945" y="-19" width="136.9000015258789" height="38"/><text class="label"><tspan xml:space="preserve" text-anchor="middle" alignment-baseline="central">Lambda Invoke (1)</tspan></text></g></g></g><g class="edges"/></g></g><path class="path" style="fill: none;" marker-end="url(#arrowhead40)" d="M88.44999694824219,0L88.44999694824217,1.6666666666666665C88.44999694824219,3.333333333333333,88.44999694824219,6.666666666666666,88.44999758402506,8.333333333333332C88.44999821980794,10,88.44999949137369,10,88.45000012715657,11.666666666666664C88.45000076293945,13.333333333333332,88.45000076293945,16.666666666666664,88.45000076293945,18.333333333333332L88.45000076293945,20"/></g></g></g><g class="edges"/></g><g class="branch" transform="translate(393.1999969482422,0)"><g class="nodes"><g class="node-container" transform="translate(95.94999694824219,39)"><g class="node state Map NotYetStarted Container" transform="translate(-88.44999694824219,-39)"><rect class="shape" rx="5" ry="5" x="-10" y="-10" width="174.89999389648438" height="76"/><rect class="shape" rx="5" ry="5" x="-5" y="-5" width="175.89999389648438" height="77"/><rect class="shape" rx="5" ry="5" x="0" y="0" width="176.89999389648438" height="78"/><g class="branches" transform="translate(20,20)"><g class="branch" transform="translate(0,0)"><g class="nodes"><g class="node-container" transform="translate(68.45000076293945,19)"><g class="node state Task NotYetStarted"><rect class="shape" rx="5" ry="5" x="-68.45000076293945" y="-19" width="136.9000015258789" height="38"/><text class="label"><tspan xml:space="preserve" text-anchor="middle" alignment-baseline="central">Lambda Invoke (2)</tspan></text></g></g></g><g class="edges"/></g></g><path class="path" style="fill: none;" marker-end="url(#arrowhead41)" d="M88.44999694824219,0L88.44999694824217,1.6666666666666665C88.44999694824219,3.333333333333333,88.44999694824219,6.666666666666666,88.44999758402506,8.333333333333332C88.44999821980794,10,88.44999949137369,10,88.45000012715657,11.666666666666664C88.45000076293945,13.333333333333332,88.45000076293945,16.666666666666664,88.45000076293945,18.333333333333332L88.45000076293945,20"/></g></g></g><g class="edges"/></g></g><path class="path" style="fill: none;" marker-end="url(#arrowhead42)" d="M310.04998779296875,0L310.04998779296875,3.333333333333333C310.04998779296875,6.666666666666666,310.04998779296875,13.333333333333332,275.9833234151204,16.666666666666664C241.91665903727213,20,173.7833302815755,20,139.7166659037272,23.33333333333333C105.6500015258789,26.666666666666664,105.6500015258789,33.33333333333333,105.6500015258789,36.666666666666664L105.6500015258789,40"/><path class="path" style="fill: none;" marker-end="url(#arrowhead43)" d="M310.04998779296875,0L310.04998779296875,3.333333333333333C310.04998779296875,6.666666666666666,310.04998779296875,13.333333333333332,308.74998982747394,16.666666666666664C307.44999186197913,20,304.84999593098956,20,303.54999796549475,23.33333333333333C302.25,26.666666666666664,302.25,33.33333333333333,302.25,36.666666666666664L302.25,40"/><path class="path" style="fill: none;" marker-end="url(#arrowhead44)" d="M310.04998779296875,0L310.04998779296875,3.333333333333333C310.04998779296875,6.666666666666666,310.04998779296875,13.333333333333332,343.2333221435547,16.666666666666664C376.4166564941406,20,442.78332519531244,20,475.96665954589844,23.33333333333333C509.1499938964843,26.666666666666664,509.1499938964843,33.33333333333333,509.14999389648426,36.666666666666664L509.1499938964844,40"/></g></g><g class="node-container" transform="translate(400.14166259765625,1057)"><g class="node state Parallel NotYetStarted Container" transform="translate(-216.89999389648438,-74)"><rect class="shape" rx="29.6" ry="29.6" x="0" y="0" width="433.79998779296875" height="148"/><g class="branches" transform="translate(20,40)"><g class="branch" transform="translate(0,0)"><g class="nodes"><g class="node-container" transform="translate(95.94999694824219,39)"><g class="node state Map NotYetStarted Container" transform="translate(-88.44999694824219,-39)"><rect class="shape" rx="5" ry="5" x="-10" y="-10" width="174.89999389648438" height="76"/><rect class="shape" rx="5" ry="5" x="-5" y="-5" width="175.89999389648438" height="77"/><rect class="shape" rx="5" ry="5" x="0" y="0" width="176.89999389648438" height="78"/><g class="branches" transform="translate(20,20)"><g class="branch" transform="translate(0,0)"><g class="nodes"><g class="node-container" transform="translate(68.45000076293945,19)"><g class="node state Task NotYetStarted"><rect class="shape" rx="5" ry="5" x="-68.45000076293945" y="-19" width="136.9000015258789" height="38"/><text class="label"><tspan xml:space="preserve" text-anchor="middle" alignment-baseline="central">Lambda Invoke (3)</tspan></text></g></g></g><g class="edges"/></g></g><path class="path" style="fill: none;" marker-end="url(#arrowhead45)" d="M88.44999694824219,0L88.44999694824217,1.6666666666666665C88.44999694824219,3.333333333333333,88.44999694824219,6.666666666666666,88.44999758402506,8.333333333333332C88.44999821980794,10,88.44999949137369,10,88.45000012715657,11.666666666666664C88.45000076293945,13.333333333333332,88.45000076293945,16.666666666666664,88.45000076293945,18.333333333333332L88.45000076293945,20"/></g></g></g><g class="edges"/></g><g class="branch" transform="translate(206.89999389648438,0)"><g class="nodes"><g class="node-container" transform="translate(95.94999694824219,39)"><g class="node state Map NotYetStarted Container" transform="translate(-88.44999694824219,-39)"><rect class="shape" rx="5" ry="5" x="-10" y="-10" width="174.89999389648438" height="76"/><rect class="shape" rx="5" ry="5" x="-5" y="-5" width="175.89999389648438" height="77"/><rect class="shape" rx="5" ry="5" x="0" y="0" width="176.89999389648438" height="78"/><g class="branches" transform="translate(20,20)"><g class="branch" transform="translate(0,0)"><g class="nodes"><g class="node-container" transform="translate(68.45000076293945,19)"><g class="node state Task NotYetStarted"><rect class="shape" rx="5" ry="5" x="-68.45000076293945" y="-19" width="136.9000015258789" height="38"/><text class="label"><tspan xml:space="preserve" text-anchor="middle" alignment-baseline="central">Lambda Invoke (4)</tspan></text></g></g></g><g class="edges"/></g></g><path class="path" style="fill: none;" marker-end="url(#arrowhead46)" d="M88.44999694824219,0L88.44999694824217,1.6666666666666665C88.44999694824219,3.333333333333333,88.44999694824219,6.666666666666666,88.44999758402506,8.333333333333332C88.44999821980794,10,88.44999949137369,10,88.45000012715657,11.666666666666664C88.45000076293945,13.333333333333332,88.45000076293945,16.666666666666664,88.45000076293945,18.333333333333332L88.45000076293945,20"/></g></g></g><g class="edges"/></g></g><path class="path" style="fill: none;" marker-end="url(#arrowhead47)" d="M216.89999389648438,0L216.89999389648432,3.333333333333333C216.89999389648435,6.666666666666666,216.89999389648435,13.333333333333332,200.07499440511063,16.666666666666664C183.24999491373694,20,149.59999593098956,20,132.77499643961588,23.33333333333333C115.94999694824217,26.666666666666664,115.94999694824217,33.33333333333333,115.94999694824216,36.666666666666664L115.94999694824219,40"/><path class="path" style="fill: none;" marker-end="url(#arrowhead48)" d="M216.89999389648438,0L216.89999389648432,3.333333333333333C216.89999389648435,6.666666666666666,216.89999389648435,13.333333333333332,234.55832672119135,16.666666666666664C252.2166595458984,20,287.5333251953125,20,305.1916580200195,23.33333333333333C322.84999084472656,26.666666666666664,322.84999084472656,33.33333333333333,322.8499908447265,36.666666666666664L322.84999084472656,40"/></g></g></g><g class="edges"><g class="edge"><path class="path" style="fill: none;" marker-end="url(#arrowhead49)" d="M248.02499771118164,101L248.02499771118164,103.08333333333331C248.02499771118164,105.16666666666666,248.02499771118164,109.33333333333331,248.02499771118164,113.49999999999999C248.02499771118164,117.66666666666666,248.02499771118164,121.83333333333333,248.02499771118164,123.91666666666666L248.02499771118164,126"/><defs><marker id="arrowhead49" viewBox="0 0 10 10" refX="9" refY="5" markerUnits="strokeWidth" markerWidth="8" markerHeight="6" orient="auto"><path d="M 0 0 L 10 5 L 0 10 z"/></marker></defs></g><g class="edge"><path class="path" style="fill: none;" marker-end="url(#arrowhead50)" d="M248.02499771118164,45.191667556762695L248.02499771118164,46.076389630635575C248.02499771118164,46.96111170450846,248.02499771118164,48.73055585225423,248.02499771118164,51.69861125946045C248.02499771118164,54.666666666666664,248.02499771118164,58.83333333333333,248.02499771118164,60.916666666666664L248.02499771118164,63"/><defs><marker id="arrowhead50" viewBox="0 0 10 10" refX="9" refY="5" markerUnits="strokeWidth" markerWidth="8" markerHeight="6" orient="auto"><path d="M 0 0 L 10 5 L 0 10 z"/></marker></defs></g><g class="edge"><path class="path" style="fill: none;" marker-end="url(#arrowhead51)" d="M248.02499771118164,164L248.02499771118164,166.08333333333331C248.02499771118164,168.16666666666666,248.02499771118164,172.33333333333331,248.02499771118164,176.5C248.02499771118164,180.66666666666666,248.02499771118164,184.83333333333331,248.02499771118164,186.91666666666666L248.02499771118164,189"/><defs><marker id="arrowhead51" viewBox="0 0 10 10" refX="9" refY="5" markerUnits="strokeWidth" markerWidth="8" markerHeight="6" orient="auto"><path d="M 0 0 L 10 5 L 0 10 z"/></marker></defs></g><g class="edge"><path class="path" style="fill: none;" marker-end="url(#arrowhead52)" d="M273.0499973297119,213.7490275790792L291.73194154103595,218.04085631589933C310.41388575236,222.33268505271946,347.7777741750081,230.91634252635973,366.4597183863322,237.2915045965132C385.14166259765625,243.66666666666666,385.14166259765625,247.83333333333331,385.14166259765625,249.91666666666666L385.14166259765625,252"/><defs><marker id="arrowhead52" viewBox="0 0 10 10" refX="9" refY="5" markerUnits="strokeWidth" markerWidth="8" markerHeight="6" orient="auto"><path d="M 0 0 L 10 5 L 0 10 z"/></marker></defs></g><g class="edge"><path class="path" style="fill: none;" marker-end="url(#arrowhead53)" d="M385.14166259765625,496L385.14166259765625,498.08333333333326C385.14166259765625,500.16666666666663,385.14166259765625,504.3333333333333,385.14166259765625,508.49999999999994C385.14166259765625,512.6666666666666,385.14166259765625,516.8333333333333,385.14166259765625,518.9166666666666L385.14166259765625,521"/><defs><marker id="arrowhead53" viewBox="0 0 10 10" refX="9" refY="5" markerUnits="strokeWidth" markerWidth="8" markerHeight="6" orient="auto"><path d="M 0 0 L 10 5 L 0 10 z"/></marker></defs></g><g class="edge"><path class="path" style="fill: none;" marker-end="url(#arrowhead54)" d="M326.6749954223633,552.1071548432658L311.06666247049964,555.3392957027214C295.45832951863605,558.5714365621772,264.2416636149088,565.0357182810885,229.62305559028917,583.9345258072109C195.00444756566952,602.8333333333333,156.98389742015738,634.1666666666666,137.97362234740132,649.8333333333333L118.96334727464524,665.5"/><defs><marker id="arrowhead54" viewBox="0 0 10 10" refX="9" refY="5" markerUnits="strokeWidth" markerWidth="8" markerHeight="6" orient="auto"><path d="M 0 0 L 10 5 L 0 10 z"/></marker></defs></g><g class="edge"><path class="path" style="fill: none;" marker-end="url(#arrowhead55)" d="M394.1892816452753,559L395.1813451373388,561.0833333333333C396.1734086294023,563.1666666666666,398.15753561352926,567.3333333333333,399.14959910559276,571.5C400.14166259765625,575.6666666666666,400.14166259765625,579.8333333333333,400.14166259765625,581.9166666666666L400.14166259765625,584"/><defs><marker id="arrowhead55" viewBox="0 0 10 10" refX="9" refY="5" markerUnits="strokeWidth" markerWidth="8" markerHeight="6" orient="auto"><path d="M 0 0 L 10 5 L 0 10 z"/></marker></defs></g><g class="edge"><path class="path" style="fill: none;" marker-end="url(#arrowhead56)" d="M93.38620893090172,665.5L91.3065629132026,649.8333333333333C89.22691689550348,634.1666666666666,85.06762486010525,602.8333333333333,82.98797884240615,581.9166666666666C80.90833282470703,561,80.90833282470703,550.5,80.90833282470703,540C80.90833282470703,529.5,80.90833282470703,519,80.90833282470703,491.3333333333333C80.90833282470703,463.66666666666663,80.90833282470703,418.8333333333333,80.90833282470703,374C80.90833282470703,329.16666666666663,80.90833282470703,284.3333333333333,104.59027703603108,257.45283151794905C128.27222124735513,230.57232970256476,175.63610967000324,221.64465940512952,199.31805388132727,217.1808242564119L222.99999809265137,212.71698910769433"/><defs><marker id="arrowhead56" viewBox="0 0 10 10" refX="9" refY="5" markerUnits="strokeWidth" markerWidth="8" markerHeight="6" orient="auto"><path d="M 0 0 L 10 5 L 0 10 z"/></marker></defs></g><g class="edge"><path class="path" style="fill: none;" marker-end="url(#arrowhead57)" d="M400.14166259765625,1194L400.14166259765625,1196.0833333333333C400.14166259765625,1198.1666666666665,400.14166259765625,1202.3333333333333,400.14166259765625,1205.9708333015442C400.14166259765625,1209.608333269755,400.14166259765625,1212.71666653951,400.14166259765625,1214.2708331743877L400.14166259765625,1215.8249998092651"/><defs><marker id="arrowhead57" viewBox="0 0 10 10" refX="9" refY="5" markerUnits="strokeWidth" markerWidth="8" markerHeight="6" orient="auto"><path d="M 0 0 L 10 5 L 0 10 z"/></marker></defs></g><g class="edge"><path class="path" style="fill: none;" marker-end="url(#arrowhead58)" d="M400.14166259765625,785L400.14166259765625,787.0833333333331C400.14166259765625,789.1666666666665,400.14166259765625,793.3333333333333,400.14166259765625,797.5C400.14166259765625,801.6666666666666,400.14166259765625,805.8333333333333,400.14166259765625,807.9166666666666L400.14166259765625,810"/><defs><marker id="arrowhead58" viewBox="0 0 10 10" refX="9" refY="5" markerUnits="strokeWidth" markerWidth="8" markerHeight="6" orient="auto"><path d="M 0 0 L 10 5 L 0 10 z"/></marker></defs></g><g class="edge"><path class="path" style="fill: none;" marker-end="url(#arrowhead59)" d="M400.14166259765625,958L400.14166259765625,960.0833333333333C400.14166259765625,962.1666666666666,400.14166259765625,966.3333333333333,400.14166259765625,970.5C400.14166259765625,974.6666666666666,400.14166259765625,978.8333333333333,400.14166259765625,980.9166666666665L400.14166259765625,983"/><defs><marker id="arrowhead59" viewBox="0 0 10 10" refX="9" refY="5" markerUnits="strokeWidth" markerWidth="8" markerHeight="6" orient="auto"><path d="M 0 0 L 10 5 L 0 10 z"/></marker></defs></g><g class="edge"><path class="path" style="fill: none;" marker-end="url(#arrowhead60)" d="M400.14166259765625,1131L400.14166259765625,1133.0833333333333C400.14166259765625,1135.1666666666665,400.14166259765625,1139.3333333333333,400.14166259765625,1143.5C400.14166259765625,1147.6666666666665,400.14166259765625,1151.8333333333333,400.14166259765625,1153.9166666666667L400.14166259765625,1156"/><defs><marker id="arrowhead60" viewBox="0 0 10 10" refX="9" refY="5" markerUnits="strokeWidth" markerWidth="8" markerHeight="6" orient="auto"><path d="M 0 0 L 10 5 L 0 10 z"/></marker></defs></g></g></g><style xmlns="http://www.w3.org/1999/xhtml">.node &gt; .shape {stroke: #555555;stroke-width: 0.6px;fill: #FFFFFF;} path {stroke: #555;background-color: #555;stroke-width: 1px;} .node.state.NotYetStarted &gt; .shape,.node.state.Container &gt; .shape {stroke-dasharray: 5 2;} .node.state.Failed &gt; .shape,rect.legend.Failed {fill: #DE322F;} .node.state.CaughtError &gt; .shape,rect.legend.CaughtError {fill: #FFA500;} .node.state.Succeeded &gt; .shape,rect.legend.Succeeded {fill: #2BD62E;} .node.state.InProgress &gt; .shape,rect.legend.InProgress {fill: #53c9ed;} .node.state.Cancelled &gt; .shape,rect.legend.Cancelled {fill: #dddddd;} .node.anchor &gt; .shape {fill: #FFDA75;} .node.state.hovered:not(.selected):not(.NotYetStarted) &gt; .shape,.node.selected &gt; .shape {stroke: #555555;stroke-width: 2px;} .node.state.Container.Failed &gt; .shape {fill: #EE9592;} .node.state.Container.CaughtError &gt; .shape {fill: #FFD27F;} .node.state.Container.Succeeded &gt; .shape {fill: #91EA9A;} .node.state.Container.InProgress &gt; .shape {fill :#A9E4F7;} .node.state.Container.Cancelled &gt; .shape {fill: #EEEEEE;} marker {fill: #555555;} .node.anchor,.node.state.NotYetStarted {cursor: default;} .node.state {cursor: pointer;} tspan .label {font-weight: normal;font-size: 12px;text-shadow: none;} </style></svg>