<!DOCTYPE svg PUBLIC "-//W3C//DTD SVG 1.1//EN" "https://www.w3.org/Graphics/SVG/1.1/DTD/svg11.dtd">
<svg xmlns="http://www.w3.org/2000/svg" id="sfn-svg" class="sfn-workflow-graph" width="689" height="1292">
    
    
<g transform="translate(12,19.191667556762695)"><g class="nodes"><g class="node-container" transform="translate(248.02499771118164,19)"><g class="node anchor"><circle class="shape" x="-16.191667556762695" y="-9" r="26.191667556762695"/><text class="label"><tspan xml:space="preserve" text-anchor="middle" alignment-baseline="central">Start</tspan></text></g></g><g class="node-container" transform="translate(400.14166259765625,1238)"><g class="node anchor"><circle class="shape" x="-12.175000190734863" y="-9" r="22.175000190734863"/><text class="label"><tspan xml:space="preserve" text-anchor="middle" alignment-baseline="central">End</tspan></text></g></g><g class="node-container" transform="translate(248.02499771118164,82)"><g class="node state Task NotYetStarted"><rect class="shape" rx="5" ry="5" x="-45.29166793823242" y="-19" width="90.58333587646484" height="38"/><text class="label"><tspan xml:space="preserve" text-anchor="middle" alignment-baseline="central">Build index</tspan></text></g></g><g class="node-container" transform="translate(248.02499771118164,145)"><g class="node state Pass NotYetStarted"><rect class="shape" rx="5" ry="5" x="-103.1500015258789" y="-19" width="206.3000030517578" height="38"/><text class="label"><tspan xml:space="preserve" text-anchor="middle" alignment-baseline="central">Add empty LastEvaluatedKey</tspan></text></g></g><g class="node-container" transform="translate(248.02499771118164,208)"><g class="node state Task NotYetStarted"><rect class="shape" rx="5" ry="5" x="-25.024999618530273" y="-19" width="50.04999923706055" height="38"/><text class="label"><tspan xml:space="preserve" text-anchor="middle" alignment-baseline="central">Scan</tspan></text></g></g><g class="node-container" transform="translate(385.14166259765625,374)"><g class="node state Map NotYetStarted Container" transform="translate(-103.23333740234375,-122)"><rect class="shape" rx="5" ry="5" x="-10" y="-10" width="204.4666748046875" height="242"/><rect class="shape" rx="5" ry="5" x="-5" y="-5" width="205.4666748046875" height="243"/><rect class="shape" rx="5" ry="5" x="0" y="0" width="206.4666748046875" height="244"/><g class="branches" transform="translate(20,20)"><g class="branch" transform="translate(0,0)"><g class="nodes"><g class="node-container" transform="translate(85.73333358764648,19)"><g class="node state Task NotYetStarted"><rect class="shape" rx="5" ry="5" x="-47.75833511352539" y="-19" width="95.51667022705078" height="38"/><text class="label"><tspan xml:space="preserve" text-anchor="middle" alignment-baseline="central">Get files list</tspan></text></g></g><g class="node-container" transform="translate(85.73333358764648,102)"><g class="node state Map NotYetStarted Container" transform="translate(-78.23333358764648,-39)"><rect class="shape" rx="5" ry="5" x="-10" y="-10" width="154.46666717529297" height="76"/><rect class="shape" rx="5" ry="5" x="-5" y="-5" width="155.46666717529297" height="77"/><rect class="shape" rx="5" ry="5" x="0" y="0" width="156.46666717529297" height="78"/><g class="branches" transform="translate(20,20)"><g class="branch" transform="translate(0,0)"><g class="nodes"><g class="node-container" transform="translate(58.233333587646484,19)"><g class="node state Task NotYetStarted"><rect class="shape" rx="5" ry="5" x="-58.233333587646484" y="-19" width="116.46666717529297" height="38"/><text class="label"><tspan xml:space="preserve" text-anchor="middle" alignment-baseline="central">Download data</tspan></text></g></g></g><g class="edges"/></g></g><path class="path" style="fill: none;" marker-end="url(#arrowhead121)" d="M78.23333358764648,0L78.23333358764648,1.6666666666666665C78.23333358764648,3.333333333333333,78.23333358764648,6.666666666666666,78.23333358764648,8.333333333333332C78.23333358764648,10,78.23333358764648,10,78.23333358764648,11.666666666666664C78.23333358764648,13.333333333333332,78.23333358764648,16.666666666666664,78.23333358764648,18.333333333333332L78.23333358764648,20"/></g></g><g class="node-container" transform="translate(85.73333358764648,185)"><g class="node state Task NotYetStarted"><rect class="shape" rx="5" ry="5" x="-44.93333435058594" y="-19" width="89.86666870117188" height="38"/><text class="label"><tspan xml:space="preserve" text-anchor="middle" alignment-baseline="central">Mark index</tspan></text></g></g></g><g class="edges"><g class="edge"><path class="path" style="fill: none;" marker-end="url(#arrowhead122)" d="M85.73333358764648,38L85.73333358764648,40.08333333333333C85.73333358764648,42.166666666666664,85.73333358764648,46.33333333333333,85.73333358764648,50.5C85.73333358764648,54.666666666666664,85.73333358764648,58.83333333333333,85.73333358764648,60.916666666666664L85.73333358764648,63"/><defs><marker id="arrowhead122" viewBox="0 0 10 10" refX="9" refY="5" markerUnits="strokeWidth" markerWidth="8" markerHeight="6" orient="auto"><path d="M 0 0 L 10 5 L 0 10 z"/></marker></defs></g><g class="edge"><path class="path" style="fill: none;" marker-end="url(#arrowhead123)" d="M85.73333358764648,141L85.73333358764648,143.08333333333334C85.73333358764648,145.16666666666666,85.73333358764648,149.33333333333331,85.73333358764648,153.5C85.73333358764648,157.66666666666666,85.73333358764648,161.83333333333331,85.73333358764648,163.91666666666666L85.73333358764648,166"/><defs><marker id="arrowhead123" viewBox="0 0 10 10" refX="9" refY="5" markerUnits="strokeWidth" markerWidth="8" markerHeight="6" orient="auto"><path d="M 0 0 L 10 5 L 0 10 z"/></marker></defs></g></g></g></g><path class="path" style="fill: none;" marker-end="url(#arrowhead124)" d="M103.23333740234375,0L103.23333740234374,1.6666666666666665C103.23333740234375,3.333333333333333,103.23333740234375,6.666666666666666,103.65000343322752,8.333333333333332C104.06666946411133,10,104.9000015258789,10,105.31666755676268,11.666666666666664C105.73333358764648,13.333333333333332,105.73333358764648,16.666666666666664,105.73333358764647,18.333333333333332L105.73333358764648,20"/></g></g><g class="node-container" transform="translate(385.14166259765625,540)"><g class="node state Choice NotYetStarted"><rect class="shape" rx="5" ry="5" x="-58.46666717529297" y="-19" width="116.93333435058594" height="38"/><text class="label"><tspan xml:space="preserve" text-anchor="middle" alignment-baseline="central">Check for more</tspan></text></g></g><g class="node-container" transform="translate(95.90833282470703,684.5)"><g class="node state Pass NotYetStarted"><rect class="shape" rx="5" ry="5" x="-95.90833282470703" y="-19" width="191.81666564941406" height="38"/><text class="label"><tspan xml:space="preserve" text-anchor="middle" alignment-baseline="central">Add new LastEvaluatedKey</tspan></text></g></g><g class="node-container" transform="translate(400.14166259765625,684.5)"><g class="node state Map NotYetStarted Container" transform="translate(-160.8249969482422,-100.5)"><rect class="shape" rx="5" ry="5" x="-10" y="-10" width="319.6499938964844" height="199"/><rect class="shape" rx="5" ry="5" x="-5" y="-5" width="320.6499938964844" height="200"/><rect class="shape" rx="5" ry="5" x="0" y="0" width="321.6499938964844" height="201"/><g class="branches" transform="translate(20,20)"><g class="branch" transform="translate(0,0)"><g class="nodes"><g class="node-container" transform="translate(140.8249969482422,49)"><g class="node state Parallel NotYetStarted Container" transform="translate(-140.8249969482422,-49)"><rect class="shape" rx="19.6" ry="19.6" x="0" y="0" width="281.6499938964844" height="98"/><g class="branches" transform="translate(20,40)"><g class="branch" transform="translate(0,0)"><g class="nodes"><g class="node-container" transform="translate(49.70833206176758,19)"><g class="node state Task NotYetStarted"><rect class="shape" rx="5" ry="5" x="-49.70833206176758" y="-19" width="99.41666412353516" height="38"/><text class="label"><tspan xml:space="preserve" text-anchor="middle" alignment-baseline="central">Process data</tspan></text></g></g></g><g class="edges"/></g><g class="branch" transform="translate(119.41666412353516,0)"><g class="nodes"><g class="node-container" transform="translate(61.11666488647461,19)"><g class="node state Task NotYetStarted"><rect class="shape" rx="5" ry="5" x="-61.11666488647461" y="-19" width="122.23332977294922" height="38"/><text class="label"><tspan xml:space="preserve" text-anchor="middle" alignment-baseline="central">Process location</tspan></text></g></g></g><g class="edges"/></g></g><path class="path" style="fill: none;" marker-end="url(#arrowhead125)" d="M140.8249969482422,0L140.8249969482422,3.333333333333333C140.8249969482422,6.666666666666666,140.8249969482422,13.333333333333332,128.9722194671631,16.666666666666664C117.11944198608398,20,93.41388702392578,20,81.56110954284668,23.33333333333333C69.70833206176758,26.666666666666664,69.70833206176758,33.33333333333333,69.70833206176758,36.666666666666664L69.70833206176758,40"/><path class="path" style="fill: none;" marker-end="url(#arrowhead126)" d="M140.8249969482422,0L140.8249969482422,3.333333333333333C140.8249969482422,6.666666666666666,140.8249969482422,13.333333333333332,150.77638562520343,16.666666666666664C160.7277743021647,20,180.63055165608722,20,190.58194033304846,23.33333333333333C200.53332901000974,26.666666666666664,200.53332901000974,33.33333333333333,200.5333290100097,36.666666666666664L200.53332901000977,40"/></g></g><g class="node-container" transform="translate(140.8249969482422,142)"><g class="node state Task NotYetStarted"><rect class="shape" rx="5" ry="5" x="-41.24166679382324" y="-19" width="82.48333358764648" height="38"/><text class="label"><tspan xml:space="preserve" text-anchor="middle" alignment-baseline="central">MoveFiles</tspan></text></g></g></g><g class="edges"><g class="edge"><path class="path" style="fill: none;" marker-end="url(#arrowhead127)" d="M140.8249969482422,98L140.8249969482422,100.08333333333331C140.8249969482422,102.16666666666666,140.8249969482422,106.33333333333331,140.8249969482422,110.49999999999999C140.8249969482422,114.66666666666666,140.8249969482422,118.83333333333333,140.8249969482422,120.91666666666666L140.8249969482422,123"/><defs><marker id="arrowhead127" viewBox="0 0 10 10" refX="9" refY="5" markerUnits="strokeWidth" markerWidth="8" markerHeight="6" orient="auto"><path d="M 0 0 L 10 5 L 0 10 z"/></marker></defs></g></g></g></g><path class="path" style="fill: none;" marker-end="url(#arrowhead128)" d="M160.8249969482422,0L160.8249969482422,1.6666666666666665C160.8249969482422,3.333333333333333,160.8249969482422,6.666666666666666,160.8249969482422,8.333333333333332C160.8249969482422,10,160.8249969482422,10,160.8249969482422,11.666666666666664C160.8249969482422,13.333333333333332,160.8249969482422,16.666666666666664,160.8249969482422,18.333333333333332L160.8249969482422,20"/></g></g><g class="node-container" transform="translate(400.14166259765625,1175)"><g class="node state Succeed NotYetStarted"><rect class="shape" rx="5" ry="5" x="-34.016666412353516" y="-19" width="68.03333282470703" height="38"/><text class="label"><tspan xml:space="preserve" text-anchor="middle" alignment-baseline="central">Success</tspan></text></g></g><g class="node-container" transform="translate(400.14166259765625,884)"><g class="node state Parallel NotYetStarted Container" transform="translate(-264.7083282470703,-74)"><rect class="shape" rx="29.6" ry="29.6" x="0" y="0" width="529.4166564941406" height="148"/><g class="branches" transform="translate(20,40)"><g class="branch" transform="translate(0,0)"><g class="nodes"><g class="node-container" transform="translate(79.40833282470703,39)"><g class="node state Map NotYetStarted Container" transform="translate(-71.90833282470703,-39)"><rect class="shape" rx="5" ry="5" x="-10" y="-10" width="141.81666564941406" height="76"/><rect class="shape" rx="5" ry="5" x="-5" y="-5" width="142.81666564941406" height="77"/><rect class="shape" rx="5" ry="5" x="0" y="0" width="143.81666564941406" height="78"/><g class="branches" transform="translate(20,20)"><g class="branch" transform="translate(0,0)"><g class="nodes"><g class="node-container" transform="translate(51.90833282470703,19)"><g class="node state Task NotYetStarted"><rect class="shape" rx="5" ry="5" x="-51.90833282470703" y="-19" width="103.81666564941406" height="38"/><text class="label"><tspan xml:space="preserve" text-anchor="middle" alignment-baseline="central">Load Sensors</tspan></text></g></g></g><g class="edges"/></g></g><path class="path" style="fill: none;" marker-end="url(#arrowhead129)" d="M71.90833282470703,0L71.90833282470703,1.6666666666666665C71.90833282470703,3.333333333333333,71.90833282470703,6.666666666666666,71.90833282470703,8.333333333333332C71.90833282470703,10,71.90833282470703,10,71.90833282470703,11.666666666666664C71.90833282470703,13.333333333333332,71.90833282470703,16.666666666666664,71.90833282470703,18.333333333333332L71.90833282470703,20"/></g></g></g><g class="edges"/></g><g class="branch" transform="translate(173.81666564941406,0)"><g class="nodes"><g class="node-container" transform="translate(70.63333511352539,39)"><g class="node state Map NotYetStarted Container" transform="translate(-63.13333511352539,-39)"><rect class="shape" rx="5" ry="5" x="-10" y="-10" width="124.26667022705078" height="76"/><rect class="shape" rx="5" ry="5" x="-5" y="-5" width="125.26667022705078" height="77"/><rect class="shape" rx="5" ry="5" x="0" y="0" width="126.26667022705078" height="78"/><g class="branches" transform="translate(20,20)"><g class="branch" transform="translate(0,0)"><g class="nodes"><g class="node-container" transform="translate(43.13333511352539,19)"><g class="node state Task NotYetStarted"><rect class="shape" rx="5" ry="5" x="-43.13333511352539" y="-19" width="86.26667022705078" height="38"/><text class="label"><tspan xml:space="preserve" text-anchor="middle" alignment-baseline="central">Load Time</tspan></text></g></g></g><g class="edges"/></g></g><path class="path" style="fill: none;" marker-end="url(#arrowhead130)" d="M63.13333511352539,0L63.13333511352539,1.6666666666666665C63.13333511352539,3.333333333333333,63.13333511352539,6.666666666666666,63.13333511352539,8.333333333333332C63.13333511352539,10,63.13333511352539,10,63.13333511352539,11.666666666666664C63.13333511352539,13.333333333333332,63.13333511352539,16.666666666666664,63.13333511352539,18.333333333333332L63.13333511352539,20"/></g></g></g><g class="edges"/></g><g class="branch" transform="translate(330.0833282470703,0)"><g class="nodes"><g class="node-container" transform="translate(82.16666793823242,39)"><g class="node state Map NotYetStarted Container" transform="translate(-74.66666793823242,-39)"><rect class="shape" rx="5" ry="5" x="-10" y="-10" width="147.33333587646484" height="76"/><rect class="shape" rx="5" ry="5" x="-5" y="-5" width="148.33333587646484" height="77"/><rect class="shape" rx="5" ry="5" x="0" y="0" width="149.33333587646484" height="78"/><g class="branches" transform="translate(20,20)"><g class="branch" transform="translate(0,0)"><g class="nodes"><g class="node-container" transform="translate(54.66666793823242,19)"><g class="node state Task NotYetStarted"><rect class="shape" rx="5" ry="5" x="-54.66666793823242" y="-19" width="109.33333587646484" height="38"/><text class="label"><tspan xml:space="preserve" text-anchor="middle" alignment-baseline="central">Load Location</tspan></text></g></g></g><g class="edges"/></g></g><path class="path" style="fill: none;" marker-end="url(#arrowhead131)" d="M74.66666793823242,0L74.66666793823242,1.6666666666666665C74.66666793823242,3.333333333333333,74.66666793823242,6.666666666666666,74.66666793823242,8.333333333333332C74.66666793823242,10,74.66666793823242,10,74.66666793823242,11.666666666666664C74.66666793823242,13.333333333333332,74.66666793823242,16.666666666666664,74.66666793823242,18.333333333333332L74.66666793823242,20"/></g></g></g><g class="edges"/></g></g><path class="path" style="fill: none;" marker-end="url(#arrowhead132)" d="M264.7083282470703,0L264.70832824707026,3.333333333333333C264.7083282470703,6.666666666666666,264.7083282470703,13.333333333333332,237.15832901000974,16.666666666666664C209.6083297729492,20,154.50833129882812,20,126.95833206176756,23.33333333333333C99.40833282470703,26.666666666666664,99.40833282470703,33.33333333333333,99.40833282470702,36.666666666666664L99.40833282470703,40"/><path class="path" style="fill: none;" marker-end="url(#arrowhead133)" d="M264.7083282470703,0L264.70832824707026,3.333333333333333C264.7083282470703,6.666666666666666,264.7083282470703,13.333333333333332,264.6652736663818,16.666666666666664C264.62221908569336,20,264.5361099243164,20,264.4930553436279,23.33333333333333C264.45000076293945,26.666666666666664,264.45000076293945,33.33333333333333,264.4500007629394,36.666666666666664L264.45000076293945,40"/><path class="path" style="fill: none;" marker-end="url(#arrowhead134)" d="M264.7083282470703,0L264.70832824707026,3.333333333333333C264.7083282470703,6.666666666666666,264.7083282470703,13.333333333333332,292.631939570109,16.666666666666664C320.55555089314777,20,376.4027735392252,20,404.326384862264,23.33333333333333C432.24999618530273,26.666666666666664,432.24999618530273,33.33333333333333,432.24999618530273,36.666666666666664L432.24999618530273,40"/></g></g><g class="node-container" transform="translate(400.14166259765625,1057)"><g class="node state Parallel NotYetStarted Container" transform="translate(-220.43333435058594,-74)"><rect class="shape" rx="29.6" ry="29.6" x="0" y="0" width="440.8666687011719" height="148"/><g class="branches" transform="translate(20,40)"><g class="branch" transform="translate(0,0)"><g class="nodes"><g class="node-container" transform="translate(95.55833435058594,39)"><g class="node state Map NotYetStarted Container" transform="translate(-88.05833435058594,-39)"><rect class="shape" rx="5" ry="5" x="-10" y="-10" width="174.11666870117188" height="76"/><rect class="shape" rx="5" ry="5" x="-5" y="-5" width="175.11666870117188" height="77"/><rect class="shape" rx="5" ry="5" x="0" y="0" width="176.11666870117188" height="78"/><g class="branches" transform="translate(20,20)"><g class="branch" transform="translate(0,0)"><g class="nodes"><g class="node-container" transform="translate(68.05833435058594,19)"><g class="node state Task NotYetStarted"><rect class="shape" rx="5" ry="5" x="-68.05833435058594" y="-19" width="136.11666870117188" height="38"/><text class="label"><tspan xml:space="preserve" text-anchor="middle" alignment-baseline="central">Load Temperature</tspan></text></g></g></g><g class="edges"/></g></g><path class="path" style="fill: none;" marker-end="url(#arrowhead135)" d="M88.05833435058594,0L88.05833435058592,1.6666666666666665C88.05833435058594,3.333333333333333,88.05833435058594,6.666666666666666,88.05833435058592,8.333333333333332C88.05833435058594,10,88.05833435058594,10,88.05833435058592,11.666666666666664C88.05833435058594,13.333333333333332,88.05833435058594,16.666666666666664,88.05833435058592,18.333333333333332L88.05833435058594,20"/></g></g></g><g class="edges"/></g><g class="branch" transform="translate(206.11666870117188,0)"><g class="nodes"><g class="node-container" transform="translate(99.875,39)"><g class="node state Map NotYetStarted Container" transform="translate(-92.375,-39)"><rect class="shape" rx="5" ry="5" x="-10" y="-10" width="182.75" height="76"/><rect class="shape" rx="5" ry="5" x="-5" y="-5" width="183.75" height="77"/><rect class="shape" rx="5" ry="5" x="0" y="0" width="184.75" height="78"/><g class="branches" transform="translate(20,20)"><g class="branch" transform="translate(0,0)"><g class="nodes"><g class="node-container" transform="translate(72.375,19)"><g class="node state Task NotYetStarted"><rect class="shape" rx="5" ry="5" x="-72.375" y="-19" width="144.75" height="38"/><text class="label"><tspan xml:space="preserve" text-anchor="middle" alignment-baseline="central">Load Concentration</tspan></text></g></g></g><g class="edges"/></g></g><path class="path" style="fill: none;" marker-end="url(#arrowhead136)" d="M92.375,0L92.37499999999999,1.6666666666666665C92.375,3.333333333333333,92.375,6.666666666666666,92.37499999999999,8.333333333333332C92.375,10,92.375,10,92.37499999999999,11.666666666666664C92.375,13.333333333333332,92.375,16.666666666666664,92.37499999999999,18.333333333333332L92.375,20"/></g></g></g><g class="edges"/></g></g><path class="path" style="fill: none;" marker-end="url(#arrowhead137)" d="M220.43333435058594,0L220.43333435058588,3.333333333333333C220.4333343505859,6.666666666666666,220.4333343505859,13.333333333333332,202.95416768391922,16.666666666666664C185.47500101725257,20,150.51666768391925,20,133.0375010172526,23.33333333333333C115.55833435058592,26.666666666666664,115.55833435058592,33.33333333333333,115.55833435058591,36.666666666666664L115.55833435058594,40"/><path class="path" style="fill: none;" marker-end="url(#arrowhead138)" d="M220.43333435058594,0L220.43333435058588,3.333333333333333C220.4333343505859,6.666666666666666,220.4333343505859,13.333333333333332,238.02639007568354,16.666666666666664C255.61944580078122,20,290.80555725097656,20,308.39861297607416,23.33333333333333C325.9916687011719,26.666666666666664,325.9916687011719,33.33333333333333,325.9916687011718,36.666666666666664L325.9916687011719,40"/></g></g></g><g class="edges"><g class="edge"><path class="path" style="fill: none;" marker-end="url(#arrowhead139)" d="M248.02499771118164,101L248.02499771118164,103.08333333333331C248.02499771118164,105.16666666666666,248.02499771118164,109.33333333333331,248.02499771118164,113.49999999999999C248.02499771118164,117.66666666666666,248.02499771118164,121.83333333333333,248.02499771118164,123.91666666666666L248.02499771118164,126"/><defs><marker id="arrowhead139" viewBox="0 0 10 10" refX="9" refY="5" markerUnits="strokeWidth" markerWidth="8" markerHeight="6" orient="auto"><path d="M 0 0 L 10 5 L 0 10 z"/></marker></defs></g><g class="edge"><path class="path" style="fill: none;" marker-end="url(#arrowhead140)" d="M248.02499771118164,45.191667556762695L248.02499771118164,46.076389630635575C248.02499771118164,46.96111170450846,248.02499771118164,48.73055585225423,248.02499771118164,51.69861125946045C248.02499771118164,54.666666666666664,248.02499771118164,58.83333333333333,248.02499771118164,60.916666666666664L248.02499771118164,63"/><defs><marker id="arrowhead140" viewBox="0 0 10 10" refX="9" refY="5" markerUnits="strokeWidth" markerWidth="8" markerHeight="6" orient="auto"><path d="M 0 0 L 10 5 L 0 10 z"/></marker></defs></g><g class="edge"><path class="path" style="fill: none;" marker-end="url(#arrowhead141)" d="M248.02499771118164,164L248.02499771118164,166.08333333333331C248.02499771118164,168.16666666666666,248.02499771118164,172.33333333333331,248.02499771118164,176.5C248.02499771118164,180.66666666666666,248.02499771118164,184.83333333333331,248.02499771118164,186.91666666666666L248.02499771118164,189"/><defs><marker id="arrowhead141" viewBox="0 0 10 10" refX="9" refY="5" markerUnits="strokeWidth" markerWidth="8" markerHeight="6" orient="auto"><path d="M 0 0 L 10 5 L 0 10 z"/></marker></defs></g><g class="edge"><path class="path" style="fill: none;" marker-end="url(#arrowhead142)" d="M273.0499973297119,213.7490275790792L291.73194154103595,218.04085631589933C310.41388575236,222.33268505271946,347.7777741750081,230.91634252635973,366.4597183863322,237.2915045965132C385.14166259765625,243.66666666666666,385.14166259765625,247.83333333333331,385.14166259765625,249.91666666666666L385.14166259765625,252"/><defs><marker id="arrowhead142" viewBox="0 0 10 10" refX="9" refY="5" markerUnits="strokeWidth" markerWidth="8" markerHeight="6" orient="auto"><path d="M 0 0 L 10 5 L 0 10 z"/></marker></defs></g><g class="edge"><path class="path" style="fill: none;" marker-end="url(#arrowhead143)" d="M385.14166259765625,496L385.14166259765625,498.08333333333326C385.14166259765625,500.16666666666663,385.14166259765625,504.3333333333333,385.14166259765625,508.49999999999994C385.14166259765625,512.6666666666666,385.14166259765625,516.8333333333333,385.14166259765625,518.9166666666666L385.14166259765625,521"/><defs><marker id="arrowhead143" viewBox="0 0 10 10" refX="9" refY="5" markerUnits="strokeWidth" markerWidth="8" markerHeight="6" orient="auto"><path d="M 0 0 L 10 5 L 0 10 z"/></marker></defs></g><g class="edge"><path class="path" style="fill: none;" marker-end="url(#arrowhead144)" d="M326.6749954223633,552.1071548432658L311.06666247049964,555.3392957027214C295.45832951863605,558.5714365621772,264.2416636149088,565.0357182810885,229.62305559028917,583.9345258072109C195.00444756566952,602.8333333333333,156.98389742015738,634.1666666666666,137.97362234740132,649.8333333333333L118.96334727464524,665.5"/><defs><marker id="arrowhead144" viewBox="0 0 10 10" refX="9" refY="5" markerUnits="strokeWidth" markerWidth="8" markerHeight="6" orient="auto"><path d="M 0 0 L 10 5 L 0 10 z"/></marker></defs></g><g class="edge"><path class="path" style="fill: none;" marker-end="url(#arrowhead145)" d="M394.1892816452753,559L395.1813451373388,561.0833333333333C396.1734086294023,563.1666666666666,398.15753561352926,567.3333333333333,399.14959910559276,571.5C400.14166259765625,575.6666666666666,400.14166259765625,579.8333333333333,400.14166259765625,581.9166666666666L400.14166259765625,584"/><defs><marker id="arrowhead145" viewBox="0 0 10 10" refX="9" refY="5" markerUnits="strokeWidth" markerWidth="8" markerHeight="6" orient="auto"><path d="M 0 0 L 10 5 L 0 10 z"/></marker></defs></g><g class="edge"><path class="path" style="fill: none;" marker-end="url(#arrowhead146)" d="M93.38620893090172,665.5L91.3065629132026,649.8333333333333C89.22691689550348,634.1666666666666,85.06762486010525,602.8333333333333,82.98797884240615,581.9166666666666C80.90833282470703,561,80.90833282470703,550.5,80.90833282470703,540C80.90833282470703,529.5,80.90833282470703,519,80.90833282470703,491.3333333333333C80.90833282470703,463.66666666666663,80.90833282470703,418.8333333333333,80.90833282470703,374C80.90833282470703,329.16666666666663,80.90833282470703,284.3333333333333,104.59027703603108,257.45283151794905C128.27222124735513,230.57232970256476,175.63610967000324,221.64465940512952,199.31805388132727,217.1808242564119L222.99999809265137,212.71698910769433"/><defs><marker id="arrowhead146" viewBox="0 0 10 10" refX="9" refY="5" markerUnits="strokeWidth" markerWidth="8" markerHeight="6" orient="auto"><path d="M 0 0 L 10 5 L 0 10 z"/></marker></defs></g><g class="edge"><path class="path" style="fill: none;" marker-end="url(#arrowhead147)" d="M400.14166259765625,1194L400.14166259765625,1196.0833333333333C400.14166259765625,1198.1666666666665,400.14166259765625,1202.3333333333333,400.14166259765625,1205.9708333015442C400.14166259765625,1209.608333269755,400.14166259765625,1212.71666653951,400.14166259765625,1214.2708331743877L400.14166259765625,1215.8249998092651"/><defs><marker id="arrowhead147" viewBox="0 0 10 10" refX="9" refY="5" markerUnits="strokeWidth" markerWidth="8" markerHeight="6" orient="auto"><path d="M 0 0 L 10 5 L 0 10 z"/></marker></defs></g><g class="edge"><path class="path" style="fill: none;" marker-end="url(#arrowhead148)" d="M400.14166259765625,785L400.14166259765625,787.0833333333331C400.14166259765625,789.1666666666665,400.14166259765625,793.3333333333333,400.14166259765625,797.5C400.14166259765625,801.6666666666666,400.14166259765625,805.8333333333333,400.14166259765625,807.9166666666666L400.14166259765625,810"/><defs><marker id="arrowhead148" viewBox="0 0 10 10" refX="9" refY="5" markerUnits="strokeWidth" markerWidth="8" markerHeight="6" orient="auto"><path d="M 0 0 L 10 5 L 0 10 z"/></marker></defs></g><g class="edge"><path class="path" style="fill: none;" marker-end="url(#arrowhead149)" d="M400.14166259765625,958L400.14166259765625,960.0833333333333C400.14166259765625,962.1666666666666,400.14166259765625,966.3333333333333,400.14166259765625,970.5C400.14166259765625,974.6666666666666,400.14166259765625,978.8333333333333,400.14166259765625,980.9166666666665L400.14166259765625,983"/><defs><marker id="arrowhead149" viewBox="0 0 10 10" refX="9" refY="5" markerUnits="strokeWidth" markerWidth="8" markerHeight="6" orient="auto"><path d="M 0 0 L 10 5 L 0 10 z"/></marker></defs></g><g class="edge"><path class="path" style="fill: none;" marker-end="url(#arrowhead150)" d="M400.14166259765625,1131L400.14166259765625,1133.0833333333333C400.14166259765625,1135.1666666666665,400.14166259765625,1139.3333333333333,400.14166259765625,1143.5C400.14166259765625,1147.6666666666665,400.14166259765625,1151.8333333333333,400.14166259765625,1153.9166666666667L400.14166259765625,1156"/><defs><marker id="arrowhead150" viewBox="0 0 10 10" refX="9" refY="5" markerUnits="strokeWidth" markerWidth="8" markerHeight="6" orient="auto"><path d="M 0 0 L 10 5 L 0 10 z"/></marker></defs></g></g></g><style xmlns="http://www.w3.org/1999/xhtml">.node &gt; .shape {stroke: #555555;stroke-width: 0.6px;fill: #FFFFFF;} path {stroke: #555;background-color: #555;stroke-width: 1px;} .node.state.NotYetStarted &gt; .shape,.node.state.Container &gt; .shape {stroke-dasharray: 5 2;} .node.state.Failed &gt; .shape,rect.legend.Failed {fill: #DE322F;} .node.state.CaughtError &gt; .shape,rect.legend.CaughtError {fill: #FFA500;} .node.state.Succeeded &gt; .shape,rect.legend.Succeeded {fill: #2BD62E;} .node.state.InProgress &gt; .shape,rect.legend.InProgress {fill: #53c9ed;} .node.state.Cancelled &gt; .shape,rect.legend.Cancelled {fill: #dddddd;} .node.anchor &gt; .shape {fill: #FFDA75;} .node.state.hovered:not(.selected):not(.NotYetStarted) &gt; .shape,.node.selected &gt; .shape {stroke: #555555;stroke-width: 2px;} .node.state.Container.Failed &gt; .shape {fill: #EE9592;} .node.state.Container.CaughtError &gt; .shape {fill: #FFD27F;} .node.state.Container.Succeeded &gt; .shape {fill: #91EA9A;} .node.state.Container.InProgress &gt; .shape {fill :#A9E4F7;} .node.state.Container.Cancelled &gt; .shape {fill: #EEEEEE;} marker {fill: #555555;} .node.anchor,.node.state.NotYetStarted {cursor: default;} .node.state {cursor: pointer;} tspan .label {font-weight: normal;font-size: 12px;text-shadow: none;} </style></svg>